<mxfile host="app.diagrams.net" modified="2023-04-02T08:28:19.947Z" agent="Mozilla/5.0 (X11; Linux x86_64; rv:109.0) Gecko/20100101 Firefox/111.0" etag="ocmBRv65MDYjmXo2hbVL" version="21.1.2" type="device">
  <diagram name="Page-1" id="_J7T8xu-7wHSL97oN_lC">
    <mxGraphModel dx="1682" dy="860" grid="1" gridSize="10" guides="1" tooltips="1" connect="1" arrows="1" fold="1" page="1" pageScale="1" pageWidth="850" pageHeight="1100" math="0" shadow="0">
      <root>
        <mxCell id="0" />
        <mxCell id="1" parent="0" />
        <mxCell id="zdbm9jdXe5bikNjpmhjg-1" value="Product" style="swimlane;whiteSpace=wrap;html=1;" vertex="1" parent="1">
          <mxGeometry x="10" y="80" width="200" height="200" as="geometry" />
        </mxCell>
        <mxCell id="zdbm9jdXe5bikNjpmhjg-11" value="name" style="text;html=1;align=center;verticalAlign=middle;resizable=0;points=[];autosize=1;strokeColor=none;fillColor=none;labelPosition=center;verticalLabelPosition=middle;" vertex="1" parent="zdbm9jdXe5bikNjpmhjg-1">
          <mxGeometry x="5" y="20" width="50" height="30" as="geometry" />
        </mxCell>
        <mxCell id="zdbm9jdXe5bikNjpmhjg-12" value="?image" style="text;html=1;align=center;verticalAlign=middle;resizable=0;points=[];autosize=1;strokeColor=none;fillColor=none;labelPosition=center;verticalLabelPosition=middle;" vertex="1" parent="zdbm9jdXe5bikNjpmhjg-1">
          <mxGeometry x="5" y="50" width="60" height="30" as="geometry" />
        </mxCell>
        <mxCell id="zdbm9jdXe5bikNjpmhjg-14" value="?description" style="text;html=1;align=center;verticalAlign=middle;resizable=0;points=[];autosize=1;strokeColor=none;fillColor=none;labelPosition=center;verticalLabelPosition=middle;" vertex="1" parent="zdbm9jdXe5bikNjpmhjg-1">
          <mxGeometry x="5" y="70" width="90" height="30" as="geometry" />
        </mxCell>
        <mxCell id="zdbm9jdXe5bikNjpmhjg-15" value="categories" style="text;html=1;align=center;verticalAlign=middle;resizable=0;points=[];autosize=1;strokeColor=none;fillColor=none;labelPosition=center;verticalLabelPosition=middle;" vertex="1" parent="zdbm9jdXe5bikNjpmhjg-1">
          <mxGeometry x="10" y="90" width="80" height="30" as="geometry" />
        </mxCell>
        <mxCell id="zdbm9jdXe5bikNjpmhjg-16" value="options" style="text;html=1;align=center;verticalAlign=middle;resizable=0;points=[];autosize=1;strokeColor=none;fillColor=none;labelPosition=center;verticalLabelPosition=middle;" vertex="1" parent="zdbm9jdXe5bikNjpmhjg-1">
          <mxGeometry x="10" y="110" width="60" height="30" as="geometry" />
        </mxCell>
        <mxCell id="zdbm9jdXe5bikNjpmhjg-17" value="slug" style="text;html=1;align=center;verticalAlign=middle;resizable=0;points=[];autosize=1;strokeColor=none;fillColor=none;labelPosition=center;verticalLabelPosition=middle;" vertex="1" parent="zdbm9jdXe5bikNjpmhjg-1">
          <mxGeometry x="15" y="130" width="50" height="30" as="geometry" />
        </mxCell>
        <mxCell id="zdbm9jdXe5bikNjpmhjg-18" value="?relatedProducts" style="text;html=1;align=center;verticalAlign=middle;resizable=0;points=[];autosize=1;strokeColor=none;fillColor=none;labelPosition=center;verticalLabelPosition=middle;" vertex="1" parent="zdbm9jdXe5bikNjpmhjg-1">
          <mxGeometry x="10" y="150" width="110" height="30" as="geometry" />
        </mxCell>
        <mxCell id="zdbm9jdXe5bikNjpmhjg-2" value="Category" style="swimlane;whiteSpace=wrap;html=1;" vertex="1" parent="1">
          <mxGeometry x="630" y="80" width="200" height="200" as="geometry" />
        </mxCell>
        <mxCell id="zdbm9jdXe5bikNjpmhjg-22" value="name" style="text;html=1;align=center;verticalAlign=middle;resizable=0;points=[];autosize=1;strokeColor=none;fillColor=none;" vertex="1" parent="zdbm9jdXe5bikNjpmhjg-2">
          <mxGeometry x="10" y="30" width="50" height="30" as="geometry" />
        </mxCell>
        <mxCell id="zdbm9jdXe5bikNjpmhjg-23" value="image" style="text;html=1;align=center;verticalAlign=middle;resizable=0;points=[];autosize=1;strokeColor=none;fillColor=none;" vertex="1" parent="zdbm9jdXe5bikNjpmhjg-2">
          <mxGeometry x="5" y="60" width="60" height="30" as="geometry" />
        </mxCell>
        <mxCell id="zdbm9jdXe5bikNjpmhjg-24" value="slug" style="text;html=1;align=center;verticalAlign=middle;resizable=0;points=[];autosize=1;strokeColor=none;fillColor=none;" vertex="1" parent="zdbm9jdXe5bikNjpmhjg-2">
          <mxGeometry x="10" y="85" width="50" height="30" as="geometry" />
        </mxCell>
        <mxCell id="zdbm9jdXe5bikNjpmhjg-5" style="edgeStyle=orthogonalEdgeStyle;rounded=0;orthogonalLoop=1;jettySize=auto;html=1;endArrow=none;endFill=0;" edge="1" parent="1" source="zdbm9jdXe5bikNjpmhjg-4">
          <mxGeometry relative="1" as="geometry">
            <mxPoint x="210.0000000000001" y="190" as="targetPoint" />
          </mxGeometry>
        </mxCell>
        <mxCell id="zdbm9jdXe5bikNjpmhjg-26" value="1,n" style="edgeLabel;html=1;align=center;verticalAlign=middle;resizable=0;points=[];" vertex="1" connectable="0" parent="zdbm9jdXe5bikNjpmhjg-5">
          <mxGeometry x="0.2853" y="1" relative="1" as="geometry">
            <mxPoint x="17" y="-1" as="offset" />
          </mxGeometry>
        </mxCell>
        <mxCell id="zdbm9jdXe5bikNjpmhjg-6" style="edgeStyle=orthogonalEdgeStyle;rounded=0;orthogonalLoop=1;jettySize=auto;html=1;endArrow=none;endFill=0;" edge="1" parent="1" source="zdbm9jdXe5bikNjpmhjg-4">
          <mxGeometry relative="1" as="geometry">
            <mxPoint x="630" y="190" as="targetPoint" />
          </mxGeometry>
        </mxCell>
        <mxCell id="zdbm9jdXe5bikNjpmhjg-27" value="0,n" style="edgeLabel;html=1;align=center;verticalAlign=middle;resizable=0;points=[];" vertex="1" connectable="0" parent="zdbm9jdXe5bikNjpmhjg-6">
          <mxGeometry x="0.2078" relative="1" as="geometry">
            <mxPoint x="-16" as="offset" />
          </mxGeometry>
        </mxCell>
        <mxCell id="zdbm9jdXe5bikNjpmhjg-4" value="related to" style="swimlane;whiteSpace=wrap;html=1;rounded=1;" vertex="1" parent="1">
          <mxGeometry x="330" y="140" width="190" height="100" as="geometry" />
        </mxCell>
        <mxCell id="zdbm9jdXe5bikNjpmhjg-7" value="Option" style="swimlane;whiteSpace=wrap;html=1;" vertex="1" parent="1">
          <mxGeometry x="10" y="720" width="200" height="200" as="geometry" />
        </mxCell>
        <mxCell id="zdbm9jdXe5bikNjpmhjg-19" value="name" style="text;html=1;align=center;verticalAlign=middle;resizable=0;points=[];autosize=1;strokeColor=none;fillColor=none;labelPosition=center;verticalLabelPosition=middle;" vertex="1" parent="zdbm9jdXe5bikNjpmhjg-7">
          <mxGeometry x="10" y="30" width="50" height="30" as="geometry" />
        </mxCell>
        <mxCell id="zdbm9jdXe5bikNjpmhjg-20" value="&lt;div&gt;image&lt;/div&gt;" style="text;html=1;align=center;verticalAlign=middle;resizable=0;points=[];autosize=1;strokeColor=none;fillColor=none;labelPosition=center;verticalLabelPosition=middle;" vertex="1" parent="zdbm9jdXe5bikNjpmhjg-7">
          <mxGeometry x="10" y="60" width="60" height="30" as="geometry" />
        </mxCell>
        <mxCell id="zdbm9jdXe5bikNjpmhjg-21" value="price" style="text;html=1;align=center;verticalAlign=middle;resizable=0;points=[];autosize=1;strokeColor=none;fillColor=none;labelPosition=center;verticalLabelPosition=middle;" vertex="1" parent="zdbm9jdXe5bikNjpmhjg-7">
          <mxGeometry x="10" y="90" width="50" height="30" as="geometry" />
        </mxCell>
        <mxCell id="zdbm9jdXe5bikNjpmhjg-9" style="edgeStyle=orthogonalEdgeStyle;rounded=0;orthogonalLoop=1;jettySize=auto;html=1;entryX=0.5;entryY=1;entryDx=0;entryDy=0;endArrow=none;endFill=0;" edge="1" parent="1" source="zdbm9jdXe5bikNjpmhjg-8" target="zdbm9jdXe5bikNjpmhjg-1">
          <mxGeometry relative="1" as="geometry" />
        </mxCell>
        <mxCell id="zdbm9jdXe5bikNjpmhjg-28" value="1,n" style="edgeLabel;html=1;align=center;verticalAlign=middle;resizable=0;points=[];" vertex="1" connectable="0" parent="zdbm9jdXe5bikNjpmhjg-9">
          <mxGeometry x="0.2498" y="1" relative="1" as="geometry">
            <mxPoint as="offset" />
          </mxGeometry>
        </mxCell>
        <mxCell id="zdbm9jdXe5bikNjpmhjg-10" style="edgeStyle=orthogonalEdgeStyle;rounded=0;orthogonalLoop=1;jettySize=auto;html=1;entryX=0.5;entryY=0;entryDx=0;entryDy=0;endArrow=none;endFill=0;" edge="1" parent="1" source="zdbm9jdXe5bikNjpmhjg-8" target="zdbm9jdXe5bikNjpmhjg-7">
          <mxGeometry relative="1" as="geometry" />
        </mxCell>
        <mxCell id="zdbm9jdXe5bikNjpmhjg-29" value="1,1" style="edgeLabel;html=1;align=center;verticalAlign=middle;resizable=0;points=[];" vertex="1" connectable="0" parent="zdbm9jdXe5bikNjpmhjg-10">
          <mxGeometry x="0.273" y="4" relative="1" as="geometry">
            <mxPoint x="-9" y="-20" as="offset" />
          </mxGeometry>
        </mxCell>
        <mxCell id="zdbm9jdXe5bikNjpmhjg-8" value="has" style="swimlane;whiteSpace=wrap;html=1;rounded=1;" vertex="1" parent="1">
          <mxGeometry x="10" y="460" width="190" height="100" as="geometry" />
        </mxCell>
      </root>
    </mxGraphModel>
  </diagram>
</mxfile>
